<?xml version="1.0" standalone="no"?>
<!DOCTYPE svg PUBLIC "-//W3C//DTD SVG 20010904//EN"
 "http://www.w3.org/TR/2001/REC-SVG-20010904/DTD/svg10.dtd">
<svg version="1.0" xmlns="http://www.w3.org/2000/svg"
 width="204.000000pt" height="204.000000pt" viewBox="0 0 204.000000 204.000000"
 preserveAspectRatio="xMidYMid meet">

<g transform="translate(0.000000,204.000000) scale(0.100000,-0.100000)"
fill="#daf6d3" stroke="none">
<path d="M963 1956 c-90 -44 -163 -83 -163 -86 0 -3 74 -42 165 -88 139 -69
165 -79 165 -63 0 35 21 41 86 25 243 -63 458 -274 524 -516 24 -89 37 -88 88
6 15 27 33 51 39 54 7 2 22 -13 34 -32 41 -71 52 -34 18 66 -102 304 -356 539
-669 618 -91 23 -117 39 -122 75 -3 22 -10 19 -165 -59z"/>
<path d="M710 1917 c-164 -58 -323 -170 -427 -301 -78 -98 -154 -251 -183
-366 -24 -93 -41 -120 -77 -120 -22 0 -19 -9 59 -165 46 -91 85 -165 88 -165
3 0 42 74 88 165 69 139 79 165 63 165 -35 0 -41 21 -25 84 65 249 270 457
518 526 87 24 85 38 -8 88 -27 15 -51 33 -54 39 -2 7 13 22 32 34 73 43 30 52
-74 16z"/>
<path d="M1782 1075 c-69 -139 -79 -165 -63 -165 35 0 41 -21 25 -84 -65 -251
-268 -457 -518 -526 -87 -24 -85 -38 8 -88 27 -15 51 -33 54 -39 2 -7 -13 -22
-32 -34 -71 -41 -34 -52 66 -18 304 102 539 356 618 669 24 93 41 120 77 120
22 0 19 9 -59 165 -46 91 -85 165 -88 165 -3 0 -42 -74 -88 -165z"/>
<path d="M501 1068 c-18 -84 -34 -161 -37 -170 -4 -15 1 -18 34 -18 45 0 36
-22 78 183 l18 87 67 0 67 0 -24 -112 c-13 -62 -26 -123 -29 -135 -5 -21 -2
-23 33 -23 l39 0 32 153 c18 83 35 160 37 170 5 16 -6 17 -139 17 l-143 0 -33
-152z"/>
<path d="M860 1063 c-18 -87 -35 -164 -37 -170 -4 -9 7 -13 35 -13 46 0 37
-20 79 183 l18 87 61 0 c64 0 74 7 74 51 0 17 -8 19 -98 19 l-99 0 -33 -157z"/>
<path d="M1146 1203 c-8 -26 -66 -302 -66 -313 0 -6 42 -10 99 -10 94 0 99 1
105 23 3 12 6 25 6 30 0 4 -28 7 -61 7 l-61 0 6 31 c3 17 6 35 6 40 0 4 26 9
58 11 54 3 57 4 60 31 3 26 2 27 -47 27 -53 0 -56 4 -45 48 6 20 13 22 64 22
51 0 58 2 64 23 12 46 11 47 -88 47 -81 0 -95 -2 -100 -17z"/>
<path d="M1371 1068 c-18 -84 -35 -161 -38 -171 -4 -16 4 -17 99 -15 l103 3 3
28 c3 27 3 27 -58 27 l-60 0 6 28 c3 15 7 33 10 40 2 8 23 12 59 12 41 0 55 4
55 14 0 8 3 21 6 30 5 13 -3 16 -51 16 -48 0 -56 3 -51 16 3 9 6 24 6 34 0 16
9 19 63 22 62 3 62 3 65 36 l3 32 -94 0 -94 0 -32 -152z"/>
<path d="M250 868 c-6 -7 -24 -35 -38 -62 -15 -27 -33 -51 -39 -54 -7 -2 -22
13 -34 32 -41 71 -52 34 -18 -66 102 -304 356 -539 669 -618 93 -24 120 -41
120 -77 0 -22 9 -19 165 59 91 46 165 85 165 88 0 3 -74 42 -165 88 -139 69
-165 79 -165 63 0 -35 -21 -41 -86 -25 -243 63 -458 274 -524 516 -17 64 -30
78 -50 56z"/>
</g>
</svg>
